<?xml version="1.0" standalone="no"?>
<!DOCTYPE svg PUBLIC "-//W3C//DTD SVG 20010904//EN"
 "http://www.w3.org/TR/2001/REC-SVG-20010904/DTD/svg10.dtd">
<svg version="1.0" xmlns="http://www.w3.org/2000/svg"
 width="100.000000pt" height="102.000000pt" viewBox="0 0 100.000000 102.000000"
 preserveAspectRatio="xMidYMid meet">

<g transform="translate(0.000000,102.000000) scale(0.100000,-0.100000)"
fill="#000000" stroke="none">
<path d="M394 1005 c-150 -32 -265 -125 -339 -274 -39 -77 -23 -73 21 6 52 94
123 161 219 209 78 39 80 39 194 39 103 0 123 -3 178 -26 120 -51 207 -140
261 -270 23 -56 27 -77 26 -169 -1 -115 -18 -180 -70 -261 -15 -24 -27 -46
-27 -49 1 -3 -8 -18 -19 -35 -15 -22 -12 -21 12 7 19 22 37 35 46 31 7 -3 14
0 14 7 0 6 -5 8 -11 4 -7 -4 -10 -1 -7 7 3 8 11 14 18 14 17 0 46 49 55 90 4
19 -2 11 -17 -22 -23 -50 -50 -89 -33 -48 55 137 77 250 69 358 -3 46 -60 171
-74 162 -5 -3 -7 0 -4 9 7 17 -112 140 -126 131 -6 -4 -10 -2 -10 4 0 28 -193
92 -274 90 -23 0 -69 -7 -102 -14z"/>
<path d="M216 744 c-18 -17 -22 -85 -7 -113 7 -12 4 -30 -9 -59 l-19 -42 54
-78 c122 -172 149 -192 263 -192 85 0 144 27 187 86 16 23 54 74 82 114 l53
71 -20 39 c-16 31 -18 45 -10 65 16 41 12 90 -8 108 -23 21 -51 21 -101 1 -35
-14 -44 -14 -92 0 -67 20 -123 20 -182 0 -43 -15 -51 -15 -87 0 -51 20 -84 20
-104 0z m102 -44 c41 -19 45 -19 75 -3 44 24 160 24 208 0 34 -17 37 -17 80 2
78 36 95 21 68 -58 -9 -26 -8 -39 6 -70 l17 -38 -39 -53 c-86 -119 -100 -136
-132 -157 -27 -18 -48 -23 -98 -23 -87 0 -125 20 -173 89 -21 31 -53 76 -71
99 -31 44 -31 44 -15 81 13 29 15 43 7 65 -6 15 -11 41 -11 57 0 35 16 37 78
9z"/>
<path d="M340 515 c-15 -18 -10 -45 13 -59 34 -22 73 27 47 59 -16 19 -44 19
-60 0z"/>
<path d="M600 516 c-6 -8 -10 -25 -8 -38 4 -32 52 -38 68 -9 22 43 -29 83 -60
47z"/>
<path d="M450 422 c0 -5 10 -18 23 -30 l23 -22 29 30 29 30 -52 0 c-29 0 -52
-4 -52 -8z"/>
<path d="M992 520 c-1 -25 -4 -63 -7 -85 l-5 -40 11 40 c5 22 8 60 6 85 l-3
45 -2 -45z"/>
<path d="M784 128 l-19 -23 23 19 c21 18 27 26 19 26 -2 0 -12 -10 -23 -22z"/>
<path d="M745 100 c-3 -5 -3 -10 2 -10 12 -1 -25 -21 -87 -48 -31 -13 -42 -21
-25 -17 42 8 142 58 127 63 -7 2 -10 8 -6 13 3 5 3 9 0 9 -3 0 -8 -4 -11 -10z"/>
</g>
</svg>
